<?xml version="1.0" standalone="no"?>
<!DOCTYPE svg PUBLIC "-//W3C//DTD SVG 20010904//EN"
 "http://www.w3.org/TR/2001/REC-SVG-20010904/DTD/svg10.dtd">
<svg version="1.0" xmlns="http://www.w3.org/2000/svg"
 width="348.000000pt" height="347.000000pt" viewBox="0 0 348.000000 347.000000"
 preserveAspectRatio="xMidYMid meet">

<g transform="translate(0.000000,347.000000) scale(0.100000,-0.100000)"
fill="#000000" stroke="none">
<path d="M1053 3423 c24 -228 132 -391 321 -482 256 -124 574 -132 799 -21 90
44 144 106 209 238 46 93 57 108 100 135 54 34 58 42 26 51 -77 20 -139 -11
-208 -106 -108 -149 -260 -218 -477 -219 -242 -1 -447 90 -541 239 -27 43 -52
111 -67 185 -5 27 -6 27 -86 27 l-81 0 5 -47z"/>
<path d="M1331 3429 c55 -244 408 -369 667 -235 72 37 167 160 196 254 7 22 6
22 -89 22 -89 0 -100 -2 -127 -25 -16 -14 -34 -25 -40 -25 -6 0 -8 11 -6 25
l5 25 -307 0 -308 0 9 -41z"/>
<path d="M3105 3063 c-4 -10 -9 -33 -11 -52 -3 -31 -2 -32 11 -15 8 11 15 24
15 31 0 6 5 13 11 15 11 4 2 38 -11 38 -4 0 -11 -8 -15 -17z"/>
<path d="M2815 2629 c3 -4 -2 -10 -11 -13 -9 -3 -14 -12 -11 -20 3 -7 1 -18
-5 -24 -6 -6 -13 -26 -14 -44 -8 -80 -15 -113 -24 -122 -13 -13 -13 -34 2 -50
19 -20 38 3 27 32 -6 15 -5 30 2 40 10 16 10 16 5 0 -8 -28 1 -21 17 12 9 16
13 38 10 49 -3 11 2 33 10 50 13 26 13 32 1 42 -13 10 -13 15 0 34 12 18 12
22 1 22 -8 0 -12 -4 -10 -8z"/>
<path d="M2091 2551 c-21 -13 63 -71 103 -71 17 0 41 -3 54 -6 13 -4 22 -2 22
5 0 6 -9 11 -19 11 -11 0 -22 6 -24 13 -4 9 -6 9 -6 0 -1 -7 -8 -10 -18 -6
-29 10 -54 36 -49 50 6 15 -41 18 -63 4z"/>
<path d="M1143 2531 c-7 -11 -33 -30 -58 -41 -25 -11 -43 -24 -41 -29 5 -8
126 -8 156 0 13 3 34 68 25 77 -1 2 -18 5 -36 8 -27 4 -37 1 -46 -15z"/>
<path d="M1927 2544 c-6 -6 34 -44 46 -44 13 0 13 39 0 44 -19 8 -38 8 -46 0z"/>
<path d="M1437 2533 c14 -3 24 -14 28 -34 8 -35 15 -36 43 -6 36 38 28 47 -35
46 -32 -1 -48 -4 -36 -6z"/>
<path d="M1600 2526 c6 -6 10 -18 10 -29 0 -27 23 -15 31 16 7 25 5 27 -22 25
-19 -1 -25 -6 -19 -12z"/>
<path d="M1707 2523 c7 -18 28 -43 36 -43 2 0 4 14 5 30 1 25 -3 30 -23 30
-19 0 -23 -4 -18 -17z"/>
<path d="M1814 2525 c8 -8 23 -15 33 -15 14 0 15 2 4 9 -11 7 -11 9 0 14 8 3
-1 6 -19 6 -30 1 -32 -1 -18 -14z"/>
<path d="M2986 2453 c-15 -15 -4 -44 19 -53 14 -5 25 -14 25 -19 0 -5 9 -11
21 -14 14 -4 18 -10 13 -19 -6 -10 -5 -10 9 0 9 8 20 11 25 9 4 -3 8 6 7 21 0
20 -5 26 -18 24 -15 -3 -22 8 -18 30 1 12 -73 31 -83 21z"/>
<path d="M2732 2320 c-16 -27 -15 -30 8 -30 21 0 23 4 12 32 -7 17 -8 16 -20
-2z"/>
<path d="M3278 2325 c-7 -8 -33 -13 -65 -14 l-23 -1 28 -45 c23 -38 32 -45 59
-45 17 0 35 6 39 12 13 21 9 63 -5 63 -8 0 -17 8 -20 18 -4 10 -9 15 -13 12z"/>
<path d="M3459 2208 c-8 -7 -28 -32 -44 -56 -23 -35 -26 -46 -18 -65 26 -53
53 -117 53 -124 0 -5 7 -17 15 -28 14 -17 15 -4 14 133 -1 84 -2 152 -3 152
-1 0 -9 -6 -17 -12z"/>
<path d="M689 2181 c-11 -12 -14 -23 -7 -35 5 -9 6 -21 3 -26 -3 -5 -8 -24
-10 -42 -7 -49 -13 -77 -20 -88 -11 -18 25 -10 42 9 9 11 22 17 29 14 8 -3 20
9 30 31 10 19 22 32 27 29 5 -3 -6 23 -24 58 -19 34 -39 64 -44 66 -6 2 -18
-5 -26 -16z"/>
<path d="M2586 2181 c-6 -10 -40 -119 -49 -159 -7 -30 1 -52 20 -52 8 0 11 -5
7 -12 -5 -8 4 -9 35 -4 28 4 40 3 36 -4 -3 -5 -14 -10 -23 -10 -10 0 -13 -3
-6 -10 5 -5 25 -9 44 -9 19 0 59 -1 88 -1 36 -1 52 2 47 10 -3 6 -10 8 -15 5
-4 -3 -6 4 -3 14 3 13 -5 26 -26 42 -30 22 -71 87 -71 112 0 15 -58 87 -70 87
-5 0 -11 -4 -14 -9z m79 -241 c3 -5 1 -10 -4 -10 -6 0 -11 5 -11 10 0 6 2 10
4 10 3 0 8 -4 11 -10z m30 0 c3 -5 1 -10 -4 -10 -6 0 -11 5 -11 10 0 6 2 10 4
10 3 0 8 -4 11 -10z"/>
<path d="M812 1995 c-14 -16 -9 -18 25 -9 13 4 20 10 17 15 -8 13 -27 10 -42
-6z"/>
<path d="M3035 1881 c-99 -46 -118 -52 -140 -47 -24 6 -45 -11 -29 -23 18 -12
46 -72 41 -86 -3 -7 2 -16 11 -20 14 -5 14 -7 2 -15 -13 -8 -12 -10 3 -10 9 0
17 -5 17 -12 0 -6 7 -20 17 -30 13 -14 13 -18 2 -18 -11 -1 -10 -4 3 -14 10
-7 18 -29 19 -52 2 -21 6 -48 11 -59 7 -19 35 -159 43 -215 2 -14 4 -29 6 -35
1 -5 -1 -18 -6 -28 -4 -11 -3 -23 4 -30 14 -14 14 -30 0 -21 -7 4 -10 1 -7 -7
2 -7 16 -16 30 -20 22 -6 27 -3 32 17 4 13 11 24 17 24 6 0 7 -6 3 -12 -5 -9
-2 -9 9 1 19 15 19 14 19 -47 0 -23 4 -40 8 -37 5 3 13 -1 17 -10 8 -13 11
-13 32 1 12 9 20 22 17 29 -2 7 -2 16 2 19 6 7 7 12 16 86 13 109 21 395 12
450 -7 48 -18 80 -27 80 -5 0 -9 6 -9 13 0 17 -59 97 -71 97 -6 0 -20 11 -33
25 -28 30 -22 29 -71 6z"/>
<path d="M538 1792 l-128 -77 5 -170 c7 -219 8 -227 45 -248 17 -10 30 -24 30
-32 0 -7 10 -15 23 -17 17 -2 22 -10 22 -32 0 -37 25 -54 57 -39 37 19 62 20
75 3 10 -13 13 -12 21 10 8 21 6 26 -9 28 -12 2 -16 8 -12 15 4 7 8 33 9 60 1
34 -3 47 -13 47 -8 0 -11 5 -7 11 3 6 1 15 -6 19 -11 7 -10 12 3 25 19 18 23
30 7 20 -5 -3 -10 -2 -10 4 0 5 4 12 9 16 15 8 6 60 -11 63 -10 2 -14 15 -14
42 1 22 5 40 9 40 5 0 6 3 4 8 -3 4 15 7 39 7 24 0 43 -4 42 -10 -1 -5 6 -35
14 -65 9 -30 26 -102 38 -160 38 -181 113 -300 222 -354 42 -22 146 -39 189
-32 55 9 123 42 157 77 60 62 118 264 121 424 1 22 9 34 30 47 36 20 32 53 -7
63 -15 4 -34 12 -42 19 -8 7 -30 19 -48 27 -34 15 -38 34 -6 34 12 0 18 -6 16
-15 -2 -8 0 -12 4 -8 4 4 13 3 21 -4 7 -6 16 -8 19 -5 7 6 -83 82 -99 83 -7 0
-30 6 -52 13 -22 6 -66 14 -97 17 -49 5 -58 3 -58 -10 0 -12 10 -16 43 -16 48
0 177 -37 177 -50 0 -15 -14 -18 -40 -7 -14 5 -36 12 -49 14 -14 2 -34 9 -45
15 -22 12 -25 12 -141 25 -83 9 -316 4 -345 -7 -3 -1 -9 -2 -14 -1 -4 1 -15
-6 -23 -16 -8 -10 -11 -11 -7 -3 6 12 5 13 -7 4 -8 -6 -22 -10 -31 -9 -10 2
-18 -3 -18 -11 0 -8 -9 -14 -20 -14 -24 0 -27 25 -3 34 14 6 15 9 3 16 -11 7
-11 11 -1 23 10 13 9 16 -6 20 -15 3 -14 6 7 15 14 6 20 11 15 11 -6 1 -11 10
-11 22 0 17 2 18 11 6 9 -12 12 -11 22 9 7 14 7 26 2 30 -5 3 -7 10 -4 15 9
13 11 14 -127 -69z m395 -192 c18 -29 22 -77 9 -95 -12 -17 -59 -34 -80 -28
-11 2 -29 18 -42 35 -30 41 -21 92 22 118 37 22 66 13 91 -30z"/>
<path d="M2350 1694 c-173 -31 -245 -54 -238 -76 7 -21 36 -21 64 1 15 12 35
21 44 21 10 0 37 7 61 16 24 8 74 15 112 16 48 0 67 3 67 13 0 19 -38 23 -110
9z"/>
<path d="M2455 1656 c-55 -4 -118 -8 -139 -8 -27 0 -35 -3 -25 -9 10 -6 7 -9
-13 -9 -15 0 -30 -5 -33 -11 -4 -6 -14 -8 -23 -4 -16 6 -82 -23 -82 -36 0 -4
-16 -13 -35 -19 -31 -10 -34 -14 -29 -38 9 -38 14 -44 30 -38 11 4 14 -7 14
-52 0 -70 33 -271 54 -330 35 -98 158 -184 263 -184 220 0 364 191 402 531 6
51 12 95 14 98 2 2 17 -1 32 -7 29 -11 55 0 55 24 0 18 -114 65 -193 81 -97
19 -173 22 -292 11z m-122 -139 c64 -51 20 -153 -61 -141 -30 5 -65 24 -58 31
3 4 1 12 -5 19 -8 10 -8 22 0 44 23 68 74 87 124 47z"/>
<path d="M260 1579 c-13 -10 -13 -10 0 -6 18 6 21 -40 3 -47 -8 -3 -10 1 -6
12 5 14 3 15 -7 5 -17 -15 -22 -43 -9 -43 6 0 7 -6 4 -12 -4 -7 2 -3 13 9 11
12 22 19 26 16 3 -4 6 0 7 8 0 8 3 26 5 42 5 29 -9 35 -36 16z"/>
<path d="M660 1579 c0 -5 9 -9 20 -9 11 0 20 2 20 4 0 2 -9 6 -20 9 -11 3 -20
1 -20 -4z"/>
<path d="M3327 1209 c-3 -12 0 -31 8 -41 12 -18 13 -16 10 17 -4 45 -11 53
-18 24z"/>
<path d="M3143 1007 c-78 -124 -209 -267 -316 -343 -45 -32 -84 -61 -87 -64
-55 -58 -177 -121 -355 -183 -138 -49 -168 -55 -310 -62 -49 -3 -112 -8 -140
-12 -71 -10 -286 -9 -310 1 -11 5 -35 10 -52 12 -18 2 -73 17 -123 34 -58 20
-106 30 -137 29 -26 -1 -68 4 -92 10 -25 7 -56 10 -70 8 -26 -4 -26 -4 -4 -12
13 -4 23 -13 23 -20 0 -8 18 -29 40 -48 22 -19 40 -39 40 -45 0 -6 4 -12 10
-14 5 -1 -7 -27 -27 -56 -44 -63 -41 -74 32 -114 l49 -26 -49 -31 c-27 -17
-57 -33 -67 -37 -10 -3 -18 -12 -18 -20 0 -12 34 -14 205 -14 l205 0 35 39
c32 35 40 39 73 35 42 -5 77 -25 92 -54 10 -19 21 -20 230 -20 145 0 220 4
220 10 0 6 -7 13 -15 16 -8 4 -15 13 -15 21 0 8 5 11 10 8 6 -3 10 1 10 9 0 9
7 16 15 16 8 0 15 6 15 14 0 8 9 12 24 11 17 -2 30 6 47 28 50 68 72 87 101
87 18 0 31 6 35 18 13 35 44 71 66 74 26 4 27 18 2 33 -26 15 -51 39 -58 57
-4 13 6 17 51 24 106 15 172 29 216 48 20 8 37 15 39 14 1 0 22 9 47 22 72 36
227 156 223 172 -2 4 2 7 9 5 19 -3 77 119 108 231 16 56 32 106 34 111 3 5
-3 11 -15 14 -15 4 -26 -4 -46 -36z m-916 -829 c-3 -8 -6 -5 -6 6 -1 11 2 17
5 13 3 -3 4 -12 1 -19z"/>
<path d="M1670 593 c0 -13 8 -23 23 -26 12 -3 36 -10 53 -15 25 -8 40 -6 73 9
42 19 54 39 23 39 -10 0 -28 -7 -41 -16 -27 -20 -84 -13 -112 12 -18 16 -19
16 -19 -3z"/>
<path d="M850 581 c0 -11 19 -24 38 -27 17 -3 5 13 -19 26 -12 7 -19 7 -19 1z"/>
<path d="M954 512 c10 -12 26 -20 37 -19 22 1 15 8 -26 26 -29 13 -29 12 -11
-7z"/>
<path d="M2700 331 l-25 -19 28 -8 c32 -7 53 7 44 30 -8 21 -16 20 -47 -3z"/>
<path d="M2785 247 c-1 -7 -9 -41 -16 -77 -6 -36 -15 -72 -19 -80 -4 -8 -10
-32 -14 -53 l-7 -37 44 0 45 0 22 83 c13 45 23 97 24 116 1 30 -3 35 -37 47
-29 10 -39 11 -42 1z"/>
<path d="M595 160 c-4 -6 -14 -10 -24 -10 -40 0 -44 -25 -15 -89 l27 -61 53 0
c60 0 60 -5 14 94 -11 25 -20 49 -20 54 0 14 -28 23 -35 12z"/>
<path d="M2498 3 c6 -2 18 -2 25 0 6 3 1 5 -13 5 -14 0 -19 -2 -12 -5z"/>
</g>
</svg>
